<svg id="Layer_1" data-name="Layer 1" xmlns="http://www.w3.org/2000/svg" viewBox="0 0 922.91 922.91"><defs><style>.cls-1{fill:#dfbbf2;}</style></defs><circle class="cls-1" cx="461.46" cy="461.46" r="461.46"/><path d="M807.56,500a67.24,67.24,0,0,0-114-48.41c-46-33.2-109.37-54.64-180-57.1l30.66-144.22,100.15,21.29A48.16,48.16,0,1,0,649.36,248L537.52,224.26a12,12,0,0,0-14.25,9.26L489,394.45c-71.62,2-136,23.45-182.61,57a67.25,67.25,0,1,0-74.07,109.89,132.4,132.4,0,0,0-1.61,20.36c0,103.53,120.52,187.46,269.18,187.46s269.19-83.93,269.19-187.46a133.22,133.22,0,0,0-1.58-20.23A67.26,67.26,0,0,0,807.56,500ZM346.18,548.07a48.07,48.07,0,1,1,48.09,48.06A48.14,48.14,0,0,1,346.18,548.07Zm268,127c-32.8,32.76-95.67,35.31-114.15,35.31s-81.37-2.55-114.13-35.32a12.46,12.46,0,0,1,17.62-17.61c20.67,20.68,64.91,28,96.51,28s75.84-7.34,96.55-28a12.46,12.46,0,1,1,17.6,17.63Zm-8.46-79a48.07,48.07,0,1,1,48.07-48.06A48.12,48.12,0,0,1,605.75,596.14Z" transform="translate(-38.54 -38.54)"/><path class="cls-1" d="M960.7,500C960.7,245.56,754.44,39.3,500,39.3S39.3,245.56,39.3,500C39.3,730,207.77,920.54,428,955.1V633.17H311V500H428V398.5C428,283,496.8,219.26,602,219.26c50.4,0,103.12,9,103.12,9V341.64H647.06c-57.23,0-75.08,35.51-75.08,71.94V500H699.76L679.33,633.17H572V955.1C792.23,920.54,960.7,730,960.7,500Z" transform="translate(-38.54 -38.54)"/><path d="M679.33,633.17,699.76,500H572V413.58c0-36.43,17.85-71.94,75.08-71.94h58.09V228.26s-52.72-9-103.12-9C496.8,219.26,428,283,428,398.5V500H311V633.17H428V955.1a465.4,465.4,0,0,0,144,0V633.17Z" transform="translate(-38.54 -38.54)"/></svg>