<svg id="Layer_1" data-name="Layer 1" xmlns="http://www.w3.org/2000/svg" viewBox="0 0 938.4 933.21"><defs><style>.cls-1{fill:#dfbbf2;}</style></defs><circle class="cls-1" cx="469.2" cy="468.3" r="461.46"/><path d="M807.56,500a67.24,67.24,0,0,0-114-48.41c-46-33.2-109.37-54.64-180-57.1l30.66-144.22,100.15,21.29A48.16,48.16,0,1,0,649.36,248L537.52,224.26a12,12,0,0,0-14.25,9.26L489,394.45c-71.62,2-136,23.45-182.61,57a67.25,67.25,0,1,0-74.07,109.89,132.4,132.4,0,0,0-1.61,20.36c0,103.53,120.52,187.46,269.18,187.46s269.19-83.93,269.19-187.46a133.22,133.22,0,0,0-1.58-20.23A67.26,67.26,0,0,0,807.56,500ZM346.18,548.07a48.07,48.07,0,1,1,48.09,48.06A48.14,48.14,0,0,1,346.18,548.07Zm268,127c-32.8,32.76-95.67,35.31-114.15,35.31s-81.37-2.55-114.13-35.32a12.46,12.46,0,0,1,17.62-17.61c20.67,20.68,64.91,28,96.51,28s75.84-7.34,96.55-28a12.46,12.46,0,1,1,17.6,17.63Zm-8.46-79a48.07,48.07,0,1,1,48.07-48.06A48.12,48.12,0,0,1,605.75,596.14Z" transform="translate(-30.8 -31.7)"/><circle cx="469.28" cy="520.01" r="413.2"/><path class="cls-1" d="M382.81,832.72c0,28.33.59,57.67-.24,87-.46,16.42-16,24.33-34.2,18.37-38.34-12.53-74.66-29.63-107.81-52.54C96.31,785.82,23.27,648,31.41,472.68c10-215.89,166.38-390.59,379.87-432.33,224.43-43.88,450.18,82.76,529.3,296.92,90.19,244.13-40.17,516.87-286.83,600.08-24,8.08-37.34-1.57-37.3-27,0-36.45-.1-72.89.4-109.33.49-35.38-3.83-69.1-30.46-97.32,17-3.12,32.66-5.24,48-9,15.81-3.9,31.68-8.27,46.74-14.37,68.21-27.64,103.19-80.85,114-151.69,4.62-30.21,6.57-60.58.9-91a172.73,172.73,0,0,0-38.56-81.66c-4.53-5.34-5.71-9.6-3.57-16.73,11-36.57,7.73-72.79-5.75-108.1-1.29-3.4-7.57-6.87-11.58-6.93-22.4-.31-43.2,7-62.94,16.68-17,8.34-33,18.52-49.78,27.26-4.08,2.13-9.83,3.39-14.16,2.34q-109.89-26.7-219.67-.07c-4.61,1.12-11-.21-15.12-2.74-30.83-18.92-62.12-36.57-98.47-42.69-21.62-3.64-23.81-2.46-29.74,18.33-9.39,32.86-10.85,65.77-.72,98.89,1,3.32-.39,8.76-2.7,11.5-34.79,41.39-46.67,89.35-42.6,142.41,2.25,29.45,6.74,58.3,17.86,85.81,24.66,61,72.54,94.11,134,110.19,16.11,4.21,32.76,6.39,49.16,9.52,3.14.6,6.25,1.31,10.81,2.27-15.91,16.94-23.87,36.18-28,57.35-.54,2.71-4.34,5.65-7.3,6.89-52.46,22-98.68,7.36-129.19-40.62-15.11-23.77-34.85-41.59-63.29-47.31a54.68,54.68,0,0,0-19.84-.2c-11.77,2.08-13.51,8.2-5.33,16.7a50,50,0,0,0,10.25,8.54c25.14,14.92,41.13,37.5,51.82,63.78,17.66,43.44,51.71,62.9,96.07,66C338.58,836.41,359.79,833.65,382.81,832.72Z" transform="translate(-30.8 -31.7)"/></svg>