<svg id="Layer_1" data-name="Layer 1" xmlns="http://www.w3.org/2000/svg" viewBox="0 0 922.91 922.91"><defs><style>.cls-1{fill:#dfbbf2;}</style></defs><circle class="cls-1" cx="461.46" cy="461.46" r="461.46"/><path d="M500,261.8c77.58,0,86.77.3,117.41,1.7,28.32,1.29,43.71,6,54,10a96.31,96.31,0,0,1,55.14,55.14c4,10.24,8.71,25.63,10,53.95,1.4,30.64,1.7,39.83,1.7,117.41s-.3,86.77-1.7,117.41c-1.29,28.32-6,43.71-10,54a96.31,96.31,0,0,1-55.14,55.14c-10.24,4-25.63,8.71-54,10-30.64,1.4-39.83,1.7-117.41,1.7s-86.77-.3-117.41-1.7c-28.32-1.29-43.71-6-53.95-10a96.31,96.31,0,0,1-55.14-55.14c-4-10.24-8.71-25.63-10-54-1.4-30.64-1.7-39.83-1.7-117.41s.3-86.77,1.7-117.41c1.29-28.32,6-43.71,10-53.95a96.31,96.31,0,0,1,55.14-55.14c10.24-4,25.63-8.71,53.95-10,30.64-1.4,39.83-1.7,117.41-1.7m0-52.35c-78.91,0-88.8.34-119.79,1.75s-52,6.32-70.53,13.51a148.55,148.55,0,0,0-85,85c-7.19,18.48-12.1,39.6-13.51,70.53s-1.75,40.88-1.75,119.79.34,88.8,1.75,119.79,6.32,52.05,13.51,70.53a148.55,148.55,0,0,0,85,85c18.48,7.19,39.6,12.1,70.53,13.51s40.88,1.75,119.79,1.75,88.8-.34,119.79-1.75,52.05-6.32,70.53-13.51a148.55,148.55,0,0,0,85-85c7.19-18.48,12.1-39.6,13.51-70.53s1.75-40.88,1.75-119.79-.34-88.8-1.75-119.79-6.32-52-13.51-70.53a148.55,148.55,0,0,0-85-85c-18.48-7.19-39.6-12.1-70.53-13.51s-40.88-1.75-119.79-1.75Z" transform="translate(-38.54 -38.54)"/><path d="M500,350.8A149.2,149.2,0,1,0,649.2,500,149.2,149.2,0,0,0,500,350.8Zm0,246.05A96.85,96.85,0,1,1,596.85,500,96.85,96.85,0,0,1,500,596.85Z" transform="translate(-38.54 -38.54)"/><circle cx="616.55" cy="306.36" r="34.87"/></svg>