<svg id="Layer_1" data-name="Layer 1" xmlns="http://www.w3.org/2000/svg" viewBox="0 0 922.91 922.91"><defs><style>.cls-1{fill:#dfbbf2;}</style></defs><circle class="cls-1" cx="461.46" cy="461.46" r="461.46"/><path d="M535.71,437c7.58-8.51,13.82-17.16,21.61-24.49,23.93-22.56,52.23-33.94,85.28-33.66,18.16.16,36.12,1.47,53.63,6.53,40,11.58,63.33,39.15,74.43,78.28,8.32,29.34,9.86,59.47,9.91,89.69.11,63.74-.18,127.49,0,191.23,0,6-1.66,7.54-7.54,7.49q-49.26-.4-98.52,0c-5.78,0-7-1.74-7-7.2q.27-91,0-182c0-15.2-1-30.39-5.29-45.17-7.85-27.22-27.34-41.09-55.86-39.59-38.94,2.06-59.19,21.34-64.16,60.94a225.52,225.52,0,0,0-1.74,28.45c0,59-.06,118,.16,177,0,5.89-1.45,7.62-7.46,7.57q-49.62-.45-99.24,0c-5.3,0-6.83-1.39-6.83-6.75q.23-175.19,0-350.37c0-5.78,1.89-7.12,7.35-7.08q47.11.35,94.24,0c5.78-.05,7.27,1.82,7.14,7.29C535.49,409.12,535.71,423.08,535.71,437Z" transform="translate(-38.54 -38.54)"/><path d="M355.77,570.52c0,57.78-.09,115.55.14,173.33,0,6.42-1.57,8.36-8.22,8.29-32.82-.36-65.65-.28-98.48,0-5.26,0-6.85-1.27-6.84-6.71q.24-175.48,0-350.95c0-4.84,1.17-6.57,6.31-6.54,33.3.22,66.61.28,99.91,0,6.4-.06,7.27,2.42,7.25,7.91Q355.63,483.14,355.77,570.52Z" transform="translate(-38.54 -38.54)"/><path d="M364.83,272a65.79,65.79,0,0,1-65.6,65.84c-35.73,0-65.43-29.56-65.54-65.27a65.88,65.88,0,0,1,65.67-65.8C335.23,206.76,364.79,236.22,364.83,272Z" transform="translate(-38.54 -38.54)"/></svg>