<svg id="Layer_1" data-name="Layer 1" xmlns="http://www.w3.org/2000/svg" viewBox="0 0 1515.11 471.16"><defs><style>.cls-1{opacity:0.65;}.cls-2{fill:#fff;}.cls-3{fill:#dfbbf2;}</style></defs><rect class="cls-1" width="1515.11" height="471.16"/><circle class="cls-2" cx="244.61" cy="225.48" r="54.68"/><path class="cls-3" d="M245,351.2a125.72,125.72,0,0,1-86.35-217.11,128,128,0,0,1,16.13-12.93,7,7,0,1,1,7.83,11.61,113.5,113.5,0,0,0-14.35,11.5,111.72,111.72,0,0,0,82,192.8,7,7,0,1,1,.65,14C249,351.15,247,351.2,245,351.2Z"/><path class="cls-3" d="M311.72,330.7a7,7,0,0,1-4-12.78,111.94,111.94,0,0,0,47.61-109.78A7,7,0,1,1,369.21,206a125.93,125.93,0,0,1-53.56,123.51A6.94,6.94,0,0,1,311.72,330.7Z"/><path class="cls-3" d="M331.3,151a7,7,0,0,1-5.09-2.19A111.2,111.2,0,0,0,223,115.93a7,7,0,1,1-2.74-13.73,125.13,125.13,0,0,1,116.09,37A7,7,0,0,1,331.3,151Z"/><circle class="cls-2" cx="353.72" cy="170.67" r="24.78"/><path class="cls-3" d="M437.46,265.39a6.35,6.35,0,0,1-1.14-.1,7,7,0,0,1-5.77-8A187.34,187.34,0,0,0,433,226.81C433,124.5,349.8,41.27,247.49,41.27a185.43,185.43,0,0,0-140.76,64.65,7,7,0,0,1-10.62-9.13A199.47,199.47,0,0,1,247.49,27.27c110,0,199.54,89.51,199.54,199.54a201.62,201.62,0,0,1-2.67,32.71A7,7,0,0,1,437.46,265.39Z"/><path class="cls-3" d="M138.56,392.61a7,7,0,0,1-4-1.23A199.87,199.87,0,0,1,50.47,195a7,7,0,1,1,13.82,2.21,187.88,187.88,0,0,0-2.35,29.64,185.67,185.67,0,0,0,80.59,153,7,7,0,0,1-4,12.77Z"/><path class="cls-3" d="M247.49,426.36a7,7,0,0,1,0-14A184.73,184.73,0,0,0,404.8,325.25a7,7,0,0,1,11.86,7.44,199.47,199.47,0,0,1-169.17,93.67Z"/><circle class="cls-2" cx="81.94" cy="150.4" r="38.99"/><circle class="cls-2" cx="193.03" cy="403.31" r="37.19"/><path class="cls-3" d="M586.45,189.63l-12.61,10.1a50.89,50.89,0,0,0-9.05-7.73q-4.06-2.55-11.73-2.55-8.38,0-13.61,3.79a11.58,11.58,0,0,0-5.22,9.76q0,5.17,4.56,9.14t15.53,8.68a110.83,110.83,0,0,1,17.1,8.78,43.66,43.66,0,0,1,10,9,35.54,35.54,0,0,1,5.84,10.36,34.45,34.45,0,0,1,1.92,11.53,32.45,32.45,0,0,1-10.33,24.21,34.58,34.58,0,0,1-25,10,42.37,42.37,0,0,1-25.25-7.82q-11-7.83-16.86-23.47L527.35,259q8.49,19.22,26,19.22a20.27,20.27,0,0,0,14.12-5.08,16.54,16.54,0,0,0,5.64-12.83,17.37,17.37,0,0,0-3-9.32,26.25,26.25,0,0,0-7.34-7.71q-4.38-3-14-6.95a99.43,99.43,0,0,1-14.72-7.19,37.77,37.77,0,0,1-8.93-7.77,33,33,0,0,1-5.52-9,26.1,26.1,0,0,1-1.75-9.56q0-12.24,9.84-20.86t23.87-8.62a48.39,48.39,0,0,1,18.86,4A38.83,38.83,0,0,1,586.45,189.63Z"/><path class="cls-3" d="M612.11,176.93H635q19.39,0,31.29,9.12t11.89,23.7q0,14.66-12.56,24.58T627.49,244v46.85H612.11Zm15.38,13.59V230.4q17.52-.18,26-5t8.45-15.34a18,18,0,0,0-6.4-13.76Q649.12,190.52,627.49,190.52Z"/><path class="cls-3" d="M727.84,172.55l53.78,118.29h-16.3L752.1,261.69H703.77L690.7,290.84H674.51Zm0,35.55-18.22,40.63h36.64Z"/><path class="cls-3" d="M880.68,180.87v17.61q-18.42-9-33.88-9-19.84,0-33.44,12.82a43.23,43.23,0,0,0,.31,63.23q13.91,12.74,34.83,12.73,15.19,0,32.18-9.57v17.8a70.31,70.31,0,0,1-33.52,8.22q-26.48,0-45.24-17.91t-18.78-43.2q0-24.82,18.46-42.52t44.48-17.69Q862.81,173.36,880.68,180.87Z"/><path class="cls-3" d="M897.94,176.93h63.12v15.56H913.32v28.43h47.74V236.3H913.32v39.16h47.74v15.38H897.94Z"/><path class="cls-3" d="M1028.65,176.93h63.12v15.56H1044v28.43h47.74V236.3h-47.56v54.54h-15.56Z"/><path class="cls-3" d="M1109.83,176.93h15.38V290.84h-15.38Z"/><path class="cls-3" d="M1152.48,176.93h15.38v98.53H1205v15.38h-52.48Z"/><path class="cls-3" d="M1314.71,172.2l31.15,118.64h-15.24l-18.86-72.49-32.46,76.87-32.56-77.51-19.11,73.13h-15.16l31.16-118.64,35.66,84.88Z"/><path class="cls-3" d="M1431.42,189.63l-12.6,10.1a50.56,50.56,0,0,0-9.06-7.73q-4-2.55-11.73-2.55-8.38,0-13.6,3.79a11.58,11.58,0,0,0-5.22,9.76q0,5.17,4.56,9.14t15.53,8.68a110.19,110.19,0,0,1,17.09,8.78,43.45,43.45,0,0,1,10,9,35.35,35.35,0,0,1,5.85,10.36,34.45,34.45,0,0,1,1.92,11.53,32.49,32.49,0,0,1-10.33,24.21,34.58,34.58,0,0,1-25,10,42.38,42.38,0,0,1-25.26-7.82q-10.95-7.83-16.85-23.47l15.56-4.38q8.49,19.22,26,19.22a20.27,20.27,0,0,0,14.13-5.08,16.53,16.53,0,0,0,5.63-12.83,17.36,17.36,0,0,0-2.95-9.32,26.38,26.38,0,0,0-7.34-7.71q-4.38-3-14-6.95a99.63,99.63,0,0,1-14.73-7.19,37.92,37.92,0,0,1-8.92-7.77,32.53,32.53,0,0,1-5.52-9,25.89,25.89,0,0,1-1.75-9.56q0-12.24,9.83-20.86t23.88-8.62a48.46,48.46,0,0,1,18.86,4A38.73,38.73,0,0,1,1431.42,189.63Z"/></svg>